<?xml version="1.0" encoding="utf-8"?>
<!-- Generator: Adobe Illustrator 21.0.0, SVG Export Plug-In . SVG Version: 6.00 Build 0)  -->
<svg version="1.1" id="Layer_1" xmlns="http://www.w3.org/2000/svg" xmlns:xlink="http://www.w3.org/1999/xlink" x="0px" y="0px"
	 viewBox="0 0 235 91" enable-background="new 0 0 235 91" xml:space="preserve">
<g>
	<g>
		<polygon fill="#FFFFFF" points="127.1,55.6 116.8,39.9 126.6,24.9 122.1,24.9 114.5,36.4 106.9,24.9 102.4,24.9 112.2,39.9 
			101.9,55.6 106.5,55.6 114.5,43.4 122.5,55.6 		"/>
		<path fill="#FFFFFF" d="M191.8,21.4v12.4c-2.3-2.2-5.3-3.6-8.7-3.6c-6.9,0-12.5,5.7-12.5,12.7c0,7,5.6,12.7,12.5,12.7
			c6.9,0,12.5-5.7,12.5-12.7l0,0V21.4H191.8z M183.1,51.8c-4.8,0-8.7-4-8.7-8.9c0-4.9,3.9-8.9,8.7-8.9c4.8,0,8.7,4,8.7,8.9
			C191.8,47.9,187.9,51.8,183.1,51.8z"/>
		<g>
			<rect x="160.7" y="31.2" fill="#FFFFFF" width="3.9" height="24.4"/>
			<polygon fill="#FFFFFF" points="164.6,29.3 160.7,26.9 160.7,23.9 164.6,23.9 			"/>
		</g>
		<g>
			<rect x="201.4" y="31.2" fill="#FFFFFF" width="3.9" height="24.4"/>
			<polygon fill="#FFFFFF" points="205.4,29.3 201.4,26.9 201.4,23.9 205.4,23.9 			"/>
		</g>
		<path fill="#FFFFFF" d="M152.3,47.6c-1.7,2.6-4.7,4.4-8.2,4.4c-5.4,0-9.6-4.1-9.6-9.1c0-4.9,4.2-9,9.6-9.1c3.5,0,6.5,1.8,8.2,4.3
			l3.2-2c-2.4-3.7-6.6-6.1-11.4-6.1c-7.3,0-13.4,5.7-13.4,12.8c0,7.2,6.1,12.8,13.4,12.8c4.8,0,9-2.4,11.3-6.1L152.3,47.6z"/>
		<path fill="#FFFFFF" d="M232,47.6c-1.7,2.6-4.7,4.4-8.2,4.4c-5.4,0-9.6-4.1-9.6-9.1c0-4.9,4.2-9,9.6-9.1c3.5,0,6.5,1.8,8.2,4.3
			l3.2-2c-2.4-3.7-6.6-6.1-11.4-6.1c-7.3,0-13.4,5.7-13.4,12.8c0,7.2,6.1,12.8,13.4,12.8c4.8,0,9-2.4,11.3-6.1L232,47.6z"/>
		<g>
			<path fill="#FFFFFF" d="M105.1,65.9l-2.3-3.8h1.6l1.4,2.5h0l1.5-2.5h1.5l-2.3,3.8v2.6h-1.4V65.9z"/>
			<path fill="#FFFFFF" d="M112.9,62c1.9,0,3.2,1.4,3.2,3.3c0,1.9-1.3,3.3-3.2,3.3c-1.9,0-3.2-1.4-3.2-3.3
				C109.7,63.4,111,62,112.9,62z M112.9,67.5c1.1,0,1.9-0.9,1.9-2.2c0-1.3-0.8-2.1-1.9-2.1c-1.1,0-1.9,0.9-1.9,2.1
				C111,66.6,111.8,67.5,112.9,67.5z"/>
			<path fill="#FFFFFF" d="M117.4,62h1.4v4c0,0.9,0.5,1.4,1.3,1.4c0.8,0,1.3-0.5,1.3-1.4v-4h1.4v4c0,1.7-1.1,2.5-2.7,2.5
				c-1.6,0-2.8-0.8-2.8-2.5V62z"/>
			<path fill="#FFFFFF" d="M124.4,62h2.9c1.9,0,2.5,1,2.5,2c0,0.8-0.4,1.4-1.2,1.8l1.3,2.6h-1.5l-1-2.4h-1.5v2.4h-1.4V62z M127.3,65
				c0.8,0,1.1-0.4,1.1-1c0-0.6-0.4-0.9-1.1-0.9h-1.5V65H127.3z"/>
			<path fill="#FFFFFF" d="M137,62c0.9,0,1.7,0.3,2.3,0.8l-0.8,1c-0.4-0.4-0.9-0.6-1.5-0.6c-1.2,0-2,0.8-2,2.1c0,1.3,0.8,2.2,2,2.2
				c0.6,0,1.2-0.2,1.6-0.7l0.8,0.9c-0.7,0.6-1.5,1-2.5,1c-2,0-3.3-1.4-3.3-3.3C133.6,63.4,135,62,137,62z"/>
			<path fill="#FFFFFF" d="M140.6,62h2.7c1.8,0,2.4,1,2.4,2c0,0.8-0.4,1.4-1.1,1.8l1.2,2.6h-1.5l-1-2.4H142v2.4h-1.4V62z M143.4,65
				c0.7,0,1.1-0.4,1.1-1c0-0.6-0.4-0.9-1.1-0.9H142V65H143.4z"/>
			<path fill="#FFFFFF" d="M147.2,62h5v1.2h-3.5v1.4h3.1v1.1h-3.1v1.5h3.6v1.2h-5V62z"/>
			<path fill="#FFFFFF" d="M155.3,62h1.7l2.5,6.4h-1.6l-0.4-1.2h-2.6l-0.4,1.2h-1.6L155.3,62z M155.2,66.2h1.9l-0.9-2.6h0
				L155.2,66.2z"/>
			<path fill="#FFFFFF" d="M162.1,63.3H160V62h5.5v1.2h-2.1v5.2h-1.3V63.3z"/>
			<path fill="#FFFFFF" d="M166.5,62h1.4v6.4h-1.4V62z"/>
			<path fill="#FFFFFF" d="M169.1,62h1.5l1.6,4.8h0l1.6-4.8h1.5l-2.4,6.4h-1.6L169.1,62z"/>
			<path fill="#FFFFFF" d="M176.5,62h4.5v1.2h-3.2v1.4h2.8v1.1h-2.8v1.5h3.2v1.2h-4.6V62z"/>
			<path fill="#FFFFFF" d="M185.7,66.9c0.6,0.3,1.2,0.6,1.8,0.6c0.7,0,1-0.3,1-0.7c0-1.2-3.4-0.4-3.4-2.8c0-1.1,0.8-1.9,2.3-1.9
				c0.8,0,1.5,0.2,2.2,0.5l-0.5,1.1c-0.6-0.3-1.1-0.4-1.7-0.4c-0.6,0-1,0.3-1,0.7c0,1.2,3.4,0.3,3.4,2.8c0,1.1-0.8,1.9-2.4,1.9
				c-0.9,0-1.9-0.3-2.5-0.7L185.7,66.9z"/>
			<path fill="#FFFFFF" d="M194.2,62c1.9,0,3.2,1.4,3.2,3.3c0,1.9-1.3,3.3-3.2,3.3c-1.9,0-3.2-1.4-3.2-3.3
				C191,63.4,192.3,62,194.2,62z M194.2,67.5c1.1,0,1.9-0.9,1.9-2.2c0-1.3-0.8-2.1-1.9-2.1c-1.1,0-1.9,0.9-1.9,2.1
				C192.3,66.6,193.1,67.5,194.2,67.5z"/>
			<path fill="#FFFFFF" d="M199,62h1.4v5.2h3.1v1.2H199V62z"/>
			<path fill="#FFFFFF" d="M204.4,62h1.4v4c0,0.9,0.5,1.4,1.3,1.4c0.8,0,1.3-0.5,1.3-1.4v-4h1.4v4c0,1.7-1.2,2.5-2.8,2.5
				s-2.8-0.8-2.8-2.5V62z"/>
			<path fill="#FFFFFF" d="M213,63.3H211V62h5.5v1.2h-2.1v5.2H213V63.3z"/>
			<path fill="#FFFFFF" d="M217.5,62h1.4v6.4h-1.4V62z"/>
			<path fill="#FFFFFF" d="M223.6,62c1.9,0,3.2,1.4,3.2,3.3c0,1.9-1.3,3.3-3.2,3.3c-1.9,0-3.2-1.4-3.2-3.3
				C220.4,63.4,221.7,62,223.6,62z M223.6,67.5c1.1,0,1.9-0.9,1.9-2.2c0-1.3-0.8-2.1-1.9-2.1c-1.1,0-1.9,0.9-1.9,2.1
				C221.8,66.6,222.5,67.5,223.6,67.5z"/>
			<path fill="#FFFFFF" d="M228.3,62h1.4l3,4.2V62h1.4v6.4h-1.4l-3-4.2v4.2h-1.4V62z"/>
		</g>
		<g>
			<linearGradient id="SVGID_1_" gradientUnits="userSpaceOnUse" x1="16.0534" y1="83.8685" x2="49.1081" y2="43.0494">
				<stop  offset="0" style="stop-color:#FFFFFF"/>
				<stop  offset="0.3316" style="stop-color:#FCFCFC"/>
				<stop  offset="0.544" style="stop-color:#F4F4F4"/>
				<stop  offset="0.7228" style="stop-color:#E5E6E6"/>
				<stop  offset="0.75" style="stop-color:#E2E3E3"/>
			</linearGradient>
			<polygon fill="url(#SVGID_1_)" points="38,34 10.7,79.5 41,75.9 48.4,66 			"/>
			<linearGradient id="SVGID_2_" gradientUnits="userSpaceOnUse" x1="17.8455" y1="58.3888" x2="30.507" y2="7.6063">
				<stop  offset="0" style="stop-color:#FFFFFF"/>
				<stop  offset="0.603" style="stop-color:#FDFDFD"/>
				<stop  offset="0.8199" style="stop-color:#F6F6F6"/>
				<stop  offset="0.95" style="stop-color:#EDEDED"/>
			</linearGradient>
			<polygon fill="url(#SVGID_2_)" points="0,0 48.4,66 48.4,24.6 42.1,15.3 			"/>
			<linearGradient id="SVGID_3_" gradientUnits="userSpaceOnUse" x1="92.6126" y1="7.5599" x2="52.6842" y2="47.4884">
				<stop  offset="0" style="stop-color:#FFFFFF"/>
				<stop  offset="0.3231" style="stop-color:#FCFCFC"/>
				<stop  offset="0.5301" style="stop-color:#F4F4F4"/>
				<stop  offset="0.7042" style="stop-color:#E5E6E6"/>
				<stop  offset="0.7308" style="stop-color:#E2E3E3"/>
			</linearGradient>
			<polygon fill="url(#SVGID_3_)" points="64.1,58.9 94,9 61.9,15.4 54.5,25.4 			"/>
			<linearGradient id="SVGID_4_" gradientUnits="userSpaceOnUse" x1="54.4965" y1="58.3564" x2="102.851" y2="58.3564">
				<stop  offset="0" style="stop-color:#FFFFFF"/>
				<stop  offset="0.603" style="stop-color:#FDFDFD"/>
				<stop  offset="0.8199" style="stop-color:#F6F6F6"/>
				<stop  offset="0.95" style="stop-color:#EDEDED"/>
			</linearGradient>
			<polygon fill="url(#SVGID_4_)" points="102.9,91.4 54.5,25.4 54.5,66.8 60.8,76.1 			"/>
		</g>
	</g>
</g>
</svg>
